P1
20 20
00000000000000000000
00000000000000000000
00000000000000000000
00000000000000000000
00000000000000000000
00000110000001100000
00011001100110011000
00110000011000001100
00011000000000011000
00001100000000110000
00000110000011000000
00000011000110000000
00000001101100000000
00000000111000000000
00000000000000000000
00000000000000000000
00000000000000000000
00000000000000000000
00000000000000000000
00000000000000000000
