P1
3 5
100
101
111
001
001

