P1
3 5
111
001
010
100
100
